<?xml version="1.0" standalone="no"?>
<!DOCTYPE svg PUBLIC "-//W3C//DTD SVG 20010904//EN"
 "http://www.w3.org/TR/2001/REC-SVG-20010904/DTD/svg10.dtd">
<svg version="1.0" xmlns="http://www.w3.org/2000/svg"
 width="512.000000pt" height="512.000000pt" viewBox="0 0 512.000000 512.000000"
 preserveAspectRatio="xMidYMid meet">
<metadata>
Created by potrace 1.11, written by Peter Selinger 2001-2013
</metadata>
<g transform="translate(0.000000,512.000000) scale(0.100000,-0.100000)"
fill="#000000" stroke="none">
<path d="M2419 4776 c-2 -2 -31 -6 -64 -10 -209 -21 -383 -70 -570 -161 -223
-108 -386 -251 -498 -438 -25 -41 -34 -66 -31 -85 10 -51 55 -78 102 -61 12 5
42 40 67 79 136 212 383 382 670 461 39 10 86 22 105 25 19 3 53 9 75 14 196
42 531 28 755 -32 292 -77 537 -238 677 -445 68 -101 85 -114 130 -101 34 9
64 51 56 78 -32 111 -205 307 -364 413 -191 127 -438 216 -699 252 -48 7 -405
16 -411 11z"/>
<path d="M2450 4383 c-241 -29 -432 -97 -580 -208 -96 -71 -210 -208 -226
-269 -9 -36 12 -72 48 -85 43 -15 71 1 111 61 118 177 301 285 557 331 47 8
92 15 100 15 152 2 241 1 265 -3 135 -24 201 -39 209 -46 6 -5 16 -9 23 -9 21
0 163 -70 208 -102 64 -46 134 -118 177 -181 43 -63 74 -82 112 -67 33 12 60
54 52 83 -11 44 -90 149 -163 216 -145 134 -346 223 -578 256 -53 7 -273 13
-315 8z"/>
<path d="M2415 3935 c-169 -38 -308 -124 -387 -244 -18 -27 -23 -66 -12 -96 7
-16 51 -42 69 -40 30 3 53 18 69 45 100 170 394 244 631 158 93 -33 195 -111
211 -161 6 -18 51 -45 72 -41 6 1 17 2 22 3 6 0 19 10 30 21 83 83 -119 285
-345 346 -80 21 -282 26 -360 9z"/>
<path d="M995 3461 c-107 -26 -167 -105 -169 -222 l-1 -66 -61 -32 c-124 -65
-220 -166 -289 -306 -44 -90 -65 -162 -145 -495 -59 -245 -158 -657 -236 -973
-84 -347 -92 -391 -92 -513 0 -170 43 -290 137 -385 95 -95 225 -143 378 -138
99 3 169 21 263 67 85 42 185 133 219 200 12 23 62 152 112 285 101 272 104
279 137 324 44 59 94 54 195 -23 108 -81 214 -117 347 -118 164 -1 294 42 420
138 l55 43 295 -1 295 -1 59 -44 c181 -135 410 -172 614 -101 50 18 87 40 197
118 72 51 134 32 173 -51 11 -23 60 -151 110 -283 49 -132 100 -260 112 -285
13 -24 50 -71 84 -104 208 -204 578 -219 769 -31 104 102 142 209 141 401 -1
141 6 107 -160 790 -58 237 -61 253 -68 283 -2 9 -34 138 -70 286 -36 147 -68
278 -71 290 -67 321 -172 496 -367 613 -40 24 -75 43 -78 43 -3 0 -6 32 -7 70
-1 56 -7 80 -27 115 -49 83 -100 105 -256 111 -149 5 -202 -9 -258 -70 -46
-50 -62 -95 -62 -181 l0 -60 -41 -20 c-46 -21 -119 -90 -119 -111 0 -9 -11
-14 -27 -14 -44 -1 -1624 -1 -1775 0 -103 0 -138 3 -138 13 -1 28 -117 127
-149 127 -6 0 -11 12 -12 28 -1 87 -10 144 -25 169 -59 94 -102 114 -258 118
-66 2 -134 0 -151 -4z"/>
</g>
</svg>
